<svg xmlns="http://www.w3.org/2000/svg" viewBox="0 0 124.94 143.92"><defs><style>.cls-1{isolation:isolate;}.cls-13,.cls-2{fill:#3abdb1;}.cls-2{stroke:#231f20;stroke-width:0.96px;}.cls-10,.cls-2,.cls-5,.cls-6{stroke-miterlimit:10;}.cls-3{fill:#fff09b;}.cls-4{fill:#f27aa9;}.cls-5,.cls-7{fill:#f2ebde;}.cls-10,.cls-5,.cls-9{stroke:#f2ebde;}.cls-5{stroke-width:2.53px;}.cls-6,.cls-9{fill:#9d8655;}.cls-6{stroke:#553e19;stroke-width:1.68px;}.cls-8{fill:#553e19;}.cls-9{stroke-linejoin:round;stroke-width:4.21px;}.cls-10{fill:none;stroke-width:5.05px;}.cls-11{opacity:0.6;mix-blend-mode:multiply;}.cls-12{fill:#6a4c1f;}</style></defs><g class="cls-1"><g id="Layer_1" data-name="Layer 1"><path class="cls-2" d="M72.52,114.58l0,0,0,0Z" transform="translate(-10.2 -0.14)"/><path class="cls-3" d="M132.53,73.92c-5.26.66-20.42,3.14-31.69,10.8C86.55,94.43,73,113.84,72.5,114.54l0,0h0l0,0c-.49-.7-14-20.11-28.34-29.82-10.82-7.35-25.22-9.94-31-10.71A41.08,41.08,0,0,0,10.2,88c0,13.44,6.34,27.85,6.34,27.85s19.22,2.8,56,2.8,56.36-2.8,56.36-2.8a67.6,67.6,0,0,0,6.25-26.21A43.57,43.57,0,0,0,132.53,73.92Z" transform="translate(-10.2 -0.14)"/><path class="cls-4" d="M72.5,114.54c.49-.7,14-20.11,28.34-29.82,11.27-7.66,26.43-10.14,31.69-10.8A44.41,44.41,0,0,0,123.75,59a338.64,338.64,0,0,1-51.23,3.91,364,364,0,0,1-51.78-3.77A78.54,78.54,0,0,0,13.14,74c5.8.77,20.2,3.36,31,10.71C58.45,94.43,72,113.84,72.5,114.54Z" transform="translate(-10.2 -0.14)"/><path class="cls-5" d="M29.88,20.44s16.81,5,42.92,5,42.92-4.85,42.92-4.85S115.72,1.4,72.8,1.4,29.88,20.44,29.88,20.44Z" transform="translate(-10.2 -0.14)"/><circle class="cls-6" cx="19.87" cy="97.83" r="7.16"/><circle class="cls-6" cx="100.11" cy="97.83" r="7.16"/><circle class="cls-7" cx="62.6" cy="83.09" r="13.99"/><rect class="cls-8" x="9.61" y="124.22" width="11.2" height="19.7" rx="3.02"/><rect class="cls-8" x="102.72" y="124.22" width="11.2" height="19.7" rx="3.02"/><path class="cls-9" d="M115.72,21.84s-17.49,5-42.92,5-43-5-43-5S25.2,37.75,24.18,42.43,21,59.9,21,59.9a415.42,415.42,0,0,0,51.78,3,481.05,481.05,0,0,0,51.23-3s-1.42-10.62-3-17.58S115.72,21.84,115.72,21.84Z" transform="translate(-10.2 -0.14)"/><line class="cls-10" x1="62.6" y1="26.73" x2="62.6" y2="62.79"/><g class="cls-11"><path class="cls-12" d="M81.56,83.91c0,3.84-2.35,7.44-6.88,7.44-1.2,0-2.61-.17-3.86-.17a15.31,15.31,0,0,0-2,.17c-.16,0-.24-.11-.3-.33a6.77,6.77,0,0,1-.23-1.5c0-.19.12-.27.39-.31a10.19,10.19,0,0,1,1.79-.16h.3a5,5,0,0,0,.37-2.59c0-2-.06-3.92-.06-5.48,0-.39.17-.56.56-.56h1.5a.47.47,0,0,1,.49.54l0,5.21c0,1.44-.08,2.42-.54,3,.41,0,.8,0,1.2,0,2.89,0,4.57-2.36,4.57-5.3,0-3.28-2.54-5.42-5.83-5.42-2.79,0-4.74,1.73-4.74,3.7a2.58,2.58,0,0,0,1.25,2.2c.12.06.17.1.17.2a5.26,5.26,0,0,1-.91,1.58.2.2,0,0,1-.2.12,4,4,0,0,1-2.69-4.1c0-3.57,3.18-5.94,7.16-5.94C78,76.25,81.56,79.42,81.56,83.91Z" transform="translate(-10.2 -0.14)"/></g><path class="cls-13" d="M80.71,83.07c0,3.84-2.34,7.43-6.87,7.43-1.2,0-2.61-.16-3.87-.16a16.2,16.2,0,0,0-2,.16c-.16,0-.24-.1-.31-.32a7.35,7.35,0,0,1-.22-1.5c0-.19.12-.27.39-.31a10.19,10.19,0,0,1,1.79-.16h.3a5.06,5.06,0,0,0,.37-2.59c0-2-.06-3.92-.06-5.48,0-.39.16-.56.56-.56h1.49a.47.47,0,0,1,.5.53l0,5.22a5.14,5.14,0,0,1-.54,3c.41,0,.8,0,1.19,0,2.9,0,4.58-2.36,4.58-5.3,0-3.28-2.54-5.42-5.83-5.42-2.79,0-4.74,1.73-4.74,3.7a2.56,2.56,0,0,0,1.25,2.19c.12.07.16.11.16.21a5.34,5.34,0,0,1-.9,1.58.2.2,0,0,1-.2.12A4,4,0,0,1,65,81.35c0-3.58,3.18-5.94,7.16-5.94C77.14,75.41,80.71,78.58,80.71,83.07Z" transform="translate(-10.2 -0.14)"/><path class="cls-7" d="M128.46,126.47s-17.82,3.22-55.66,3.22c-38.86,0-55.65-3.22-55.65-3.22a4.58,4.58,0,0,1-4.58-4.57v-1.49a4.57,4.57,0,0,1,4.58-4.57s16.23,2.84,55.65,2.84c38.82,0,55.66-2.84,55.66-2.84a4.56,4.56,0,0,1,4.57,4.57v1.49A4.57,4.57,0,0,1,128.46,126.47Z" transform="translate(-10.2 -0.14)"/></g></g></svg>